<mxfile host="app.diagrams.net" modified="2024-03-11T19:09:40.024Z" agent="Mozilla/5.0 (Windows NT 10.0; Win64; x64) AppleWebKit/537.36 (KHTML, like Gecko) Chrome/122.0.0.0 Safari/537.36" etag="jR-1_hhmujUK5nWvzZxg" version="24.0.4" type="github">
  <diagram id="6a731a19-8d31-9384-78a2-239565b7b9f0" name="Page-1">
    <mxGraphModel dx="3187" dy="889" grid="1" gridSize="10" guides="1" tooltips="1" connect="1" arrows="1" fold="1" page="1" pageScale="1" pageWidth="1169" pageHeight="827" background="none" math="0" shadow="0">
      <root>
        <mxCell id="0" />
        <mxCell id="1" parent="0" />
        <mxCell id="82" value="" style="strokeColor=#FFFFFF;fillColor=#BAC8D3;fontSize=18;strokeWidth=2;fontFamily=Helvetica;html=1;opacity=60;" parent="1" vertex="1">
          <mxGeometry x="1537.3333333333333" y="930.5" width="647" height="100" as="geometry" />
        </mxCell>
        <mxCell id="56" value="LACOSA" style="strokeColor=#BAC8D3;fillColor=#000000;fontSize=24;strokeWidth=2;fontFamily=Helvetica;html=1;fontColor=#FFFFFF;fontStyle=0;spacingBottom=8;spacingRight=0;spacingLeft=83;" parent="1" vertex="1">
          <mxGeometry x="154" y="840" width="3966" height="80" as="geometry" />
        </mxCell>
        <mxCell id="57" value="Procesos" style="strokeColor=#BAC8D3;fillColor=#000000;fontSize=24;strokeWidth=2;horizontal=0;fontFamily=Helvetica;html=1;fontColor=#FFFFFF;fontStyle=0" parent="1" vertex="1">
          <mxGeometry x="154" y="930.5" width="50" height="499.5" as="geometry" />
        </mxCell>
        <mxCell id="58" value="INICIO" style="strokeColor=#BAC8D3;fillColor=#FF0000;fontSize=19;strokeWidth=2;horizontal=0;fontFamily=Helvetica;html=1;labelBackgroundColor=none;fontColor=#FFFFFF;" parent="1" vertex="1">
          <mxGeometry x="204" y="930.5" width="40" height="100" as="geometry" />
        </mxCell>
        <mxCell id="59" value="v 1.0" style="strokeColor=#BAC8D3;fillColor=#FF0000;fontSize=19;strokeWidth=2;fontFamily=Helvetica;html=1;labelBackgroundColor=none;fontColor=#FFFFFF;" parent="1" vertex="1">
          <mxGeometry x="154" y="840" width="90" height="90" as="geometry" />
        </mxCell>
        <mxCell id="60" value="INTERNO" style="strokeColor=#BAC8D3;fillColor=#FF0000;fontSize=19;strokeWidth=2;horizontal=0;fontFamily=Helvetica;html=1;labelBackgroundColor=none;fontColor=#FFFFFF;" parent="1" vertex="1">
          <mxGeometry x="204" y="1030.5" width="40" height="100" as="geometry" />
        </mxCell>
        <mxCell id="61" value="INTERNO" style="strokeColor=#BAC8D3;fillColor=#FF0000;fontSize=19;strokeWidth=2;horizontal=0;fontFamily=Helvetica;html=1;labelBackgroundColor=none;fontColor=#FFFFFF;" parent="1" vertex="1">
          <mxGeometry x="204" y="1130.25" width="40" height="100" as="geometry" />
        </mxCell>
        <mxCell id="68" value="" style="strokeColor=#FFFFFF;fillColor=#BAC8D3;fontSize=18;strokeWidth=2;fontFamily=Helvetica;html=1;opacity=60;" parent="1" vertex="1">
          <mxGeometry x="244" y="930.5" width="646.6666666666666" height="100" as="geometry" />
        </mxCell>
        <mxCell id="69" value="" style="strokeColor=#FFFFFF;fillColor=#BAC8D3;fontSize=18;strokeWidth=2;fontFamily=Helvetica;html=1;opacity=90;" parent="1" vertex="1">
          <mxGeometry x="244" y="1030.5" width="646.6666666666666" height="100" as="geometry" />
        </mxCell>
        <mxCell id="70" value="" style="strokeColor=#FFFFFF;fillColor=#BAC8D3;fontSize=18;strokeWidth=2;fontFamily=Helvetica;html=1;opacity=60;" parent="1" vertex="1">
          <mxGeometry x="244" y="1130.5" width="646.6666666666666" height="100" as="geometry" />
        </mxCell>
        <mxCell id="71" value="" style="strokeColor=#FFFFFF;fillColor=#BAC8D3;fontSize=18;strokeWidth=2;fontFamily=Helvetica;html=1;opacity=90;" parent="1" vertex="1">
          <mxGeometry x="244" y="1230.5" width="646.6666666666666" height="100" as="geometry" />
        </mxCell>
        <mxCell id="72" value="" style="strokeColor=#FFFFFF;fillColor=#BAC8D3;fontSize=18;strokeWidth=2;fontFamily=Helvetica;html=1;opacity=60;" parent="1" vertex="1">
          <mxGeometry x="244" y="1330.5" width="646.6666666666666" height="100" as="geometry" />
        </mxCell>
        <mxCell id="75" value="" style="strokeColor=#FFFFFF;fillColor=#BAC8D3;fontSize=18;strokeWidth=2;fontFamily=Helvetica;html=1;opacity=60;" parent="1" vertex="1">
          <mxGeometry x="890.6666666666666" y="930.5" width="647" height="100" as="geometry" />
        </mxCell>
        <mxCell id="76" value="" style="strokeColor=#FFFFFF;fillColor=#BAC8D3;fontSize=18;strokeWidth=2;fontFamily=Helvetica;html=1;opacity=90;" parent="1" vertex="1">
          <mxGeometry x="890.6666666666666" y="1030.5" width="646.6666666666666" height="100" as="geometry" />
        </mxCell>
        <mxCell id="77" value="" style="strokeColor=#FFFFFF;fillColor=#BAC8D3;fontSize=18;strokeWidth=2;fontFamily=Helvetica;html=1;opacity=60;" parent="1" vertex="1">
          <mxGeometry x="890.6666666666666" y="1130.5" width="646.6666666666666" height="100" as="geometry" />
        </mxCell>
        <mxCell id="78" value="" style="strokeColor=#FFFFFF;fillColor=#BAC8D3;fontSize=18;strokeWidth=2;fontFamily=Helvetica;html=1;opacity=90;" parent="1" vertex="1">
          <mxGeometry x="890.6666666666666" y="1230.5" width="646.6666666666666" height="100" as="geometry" />
        </mxCell>
        <mxCell id="79" value="" style="strokeColor=#FFFFFF;fillColor=#BAC8D3;fontSize=18;strokeWidth=2;fontFamily=Helvetica;html=1;opacity=60;" parent="1" vertex="1">
          <mxGeometry x="890.6666666666666" y="1330.5" width="646.6666666666666" height="100" as="geometry" />
        </mxCell>
        <mxCell id="89" style="edgeStyle=orthogonalEdgeStyle;rounded=1;jumpStyle=none;html=1;entryX=0;entryY=0.5;labelBackgroundColor=#ffffff;startArrow=none;startFill=0;endArrow=classic;jettySize=auto;orthogonalLoop=1;strokeColor=#0C343D;strokeWidth=3;fontFamily=Helvetica;fontSize=11;fontColor=#000000;" parent="1" source="69" edge="1">
          <mxGeometry relative="1" as="geometry">
            <Array as="points">
              <mxPoint x="549" y="1131" />
            </Array>
            <mxPoint x="524.3945578231292" y="1016" as="sourcePoint" />
            <mxPoint x="605.3537414965986" y="1130.5" as="targetPoint" />
          </mxGeometry>
        </mxCell>
        <mxCell id="XTJKwg85AFcShDBnjpuE-243" value="" style="edgeStyle=orthogonalEdgeStyle;rounded=0;orthogonalLoop=1;jettySize=auto;html=1;" edge="1" parent="1" source="90" target="XTJKwg85AFcShDBnjpuE-241">
          <mxGeometry relative="1" as="geometry" />
        </mxCell>
        <mxCell id="90" value="&lt;font color=&quot;#ffffff&quot;&gt;SOLICITUD DEL &lt;br&gt;CLIENTE&lt;/font&gt;" style="rounded=1;fillColor=#23445D;strokeColor=none;strokeWidth=2;fontFamily=Helvetica;html=1;gradientColor=none;" parent="1" vertex="1">
          <mxGeometry x="270.3945578231293" y="955.5" width="127" height="50" as="geometry" />
        </mxCell>
        <mxCell id="120" value="" style="edgeStyle=elbowEdgeStyle;elbow=horizontal;strokeWidth=3;strokeColor=#0C343D;fontFamily=Helvetica;html=1;exitX=1;exitY=0.5;exitDx=0;exitDy=0;entryX=0;entryY=0.5;entryDx=0;entryDy=0;" parent="1" source="XTJKwg85AFcShDBnjpuE-185" target="XTJKwg85AFcShDBnjpuE-186" edge="1">
          <mxGeometry x="6.448979591836746" y="830.5" width="131.97278911564624" height="100" as="geometry">
            <mxPoint x="1277.5047619047614" y="980.5" as="sourcePoint" />
            <mxPoint x="1680" y="981" as="targetPoint" />
          </mxGeometry>
        </mxCell>
        <mxCell id="140" value="C" style="group;fillColor=#FF0000;container=0;" parent="1" vertex="1" connectable="0">
          <mxGeometry x="244" y="890.5" width="646.6666666666666" height="40" as="geometry" />
        </mxCell>
        <mxCell id="XTJKwg85AFcShDBnjpuE-148" value="C" style="group;fillColor=#FF0000;" vertex="1" connectable="0" parent="1">
          <mxGeometry x="2184" y="890.5" width="646.6666666666666" height="40" as="geometry" />
        </mxCell>
        <mxCell id="XTJKwg85AFcShDBnjpuE-149" value="CONTABILIDAD" style="strokeColor=#BAC8D3;fillColor=#FF0000;fontSize=19;strokeWidth=2;fontFamily=Helvetica;html=1;labelBackgroundColor=none;fontColor=#FFFFFF;" vertex="1" parent="XTJKwg85AFcShDBnjpuE-148">
          <mxGeometry width="646.6656362699642" height="40" as="geometry" />
        </mxCell>
        <mxCell id="XTJKwg85AFcShDBnjpuE-150" value="CALIDAD" style="strokeColor=#BAC8D3;fillColor=#FF0000;fontSize=19;strokeWidth=2;fontFamily=Helvetica;html=1;labelBackgroundColor=none;fontColor=#FFFFFF;" vertex="1" parent="XTJKwg85AFcShDBnjpuE-148">
          <mxGeometry x="646.6656362699642" width="646.6656362699642" height="40" as="geometry" />
        </mxCell>
        <mxCell id="XTJKwg85AFcShDBnjpuE-151" value="CLIENTE" style="strokeColor=#BAC8D3;fillColor=#FF0000;fontSize=19;strokeWidth=2;fontFamily=Helvetica;html=1;labelBackgroundColor=none;fontColor=#FFFFFF;" vertex="1" parent="XTJKwg85AFcShDBnjpuE-148">
          <mxGeometry x="1293.3312725399282" width="646.6666666666666" height="40" as="geometry" />
        </mxCell>
        <mxCell id="XTJKwg85AFcShDBnjpuE-245" value="" style="edgeStyle=orthogonalEdgeStyle;rounded=0;orthogonalLoop=1;jettySize=auto;html=1;" edge="1" parent="1" source="XTJKwg85AFcShDBnjpuE-173" target="XTJKwg85AFcShDBnjpuE-242">
          <mxGeometry relative="1" as="geometry" />
        </mxCell>
        <mxCell id="XTJKwg85AFcShDBnjpuE-173" value="&lt;font color=&quot;#ffffff&quot;&gt;CLASIFICACIÃ“N&lt;br&gt;DEL&lt;br&gt;CLIENTE&amp;nbsp;&lt;/font&gt;" style="rounded=1;fillColor=#23445D;strokeColor=none;strokeWidth=2;fontFamily=Helvetica;html=1;gradientColor=none;" vertex="1" parent="1">
          <mxGeometry x="470.00455782312935" y="955.5" width="127" height="50" as="geometry" />
        </mxCell>
        <mxCell id="XTJKwg85AFcShDBnjpuE-251" value="" style="edgeStyle=orthogonalEdgeStyle;rounded=0;orthogonalLoop=1;jettySize=auto;html=1;" edge="1" parent="1" source="XTJKwg85AFcShDBnjpuE-174" target="XTJKwg85AFcShDBnjpuE-250">
          <mxGeometry relative="1" as="geometry" />
        </mxCell>
        <mxCell id="XTJKwg85AFcShDBnjpuE-174" value="&lt;font color=&quot;#ffffff&quot;&gt;CLASIFICACIÃ“N&amp;nbsp; DEL TRABAJO&lt;br&gt;GEOTECNIA O CALIDAD&lt;/font&gt;" style="rounded=1;fillColor=#23445D;strokeColor=none;strokeWidth=2;fontFamily=Helvetica;html=1;gradientColor=none;" vertex="1" parent="1">
          <mxGeometry x="670" y="955" width="200" height="50" as="geometry" />
        </mxCell>
        <mxCell id="XTJKwg85AFcShDBnjpuE-176" value="" style="edgeStyle=elbowEdgeStyle;elbow=horizontal;strokeWidth=3;strokeColor=#0C343D;fontFamily=Helvetica;html=1;entryX=0;entryY=0.5;entryDx=0;entryDy=0;exitX=1;exitY=0.5;exitDx=0;exitDy=0;" edge="1" parent="1" source="90" target="XTJKwg85AFcShDBnjpuE-173">
          <mxGeometry x="6.448979591836746" y="830.5" width="131.97278911564624" height="100" as="geometry">
            <mxPoint x="410" y="980" as="sourcePoint" />
            <mxPoint x="494.39" y="980" as="targetPoint" />
          </mxGeometry>
        </mxCell>
        <mxCell id="XTJKwg85AFcShDBnjpuE-178" value="" style="edgeStyle=elbowEdgeStyle;elbow=horizontal;strokeWidth=3;strokeColor=#0C343D;fontFamily=Helvetica;html=1;entryX=0;entryY=0.5;entryDx=0;entryDy=0;exitX=1;exitY=0.5;exitDx=0;exitDy=0;" edge="1" parent="1" source="XTJKwg85AFcShDBnjpuE-173" target="XTJKwg85AFcShDBnjpuE-174">
          <mxGeometry x="6.448979591836746" y="830.5" width="131.97278911564624" height="100" as="geometry">
            <mxPoint x="597" y="1005.5" as="sourcePoint" />
            <mxPoint x="670" y="1005.5" as="targetPoint" />
          </mxGeometry>
        </mxCell>
        <mxCell id="XTJKwg85AFcShDBnjpuE-184" value="" style="edgeStyle=elbowEdgeStyle;elbow=horizontal;strokeWidth=3;strokeColor=#0C343D;fontFamily=Helvetica;html=1;exitX=1;exitY=0.5;exitDx=0;exitDy=0;entryX=0;entryY=0.5;entryDx=0;entryDy=0;" edge="1" parent="1" source="XTJKwg85AFcShDBnjpuE-174" target="XTJKwg85AFcShDBnjpuE-185">
          <mxGeometry x="6.448979591836746" y="830.5" width="131.97278911564624" height="100" as="geometry">
            <mxPoint x="879.9999999999998" y="970" as="sourcePoint" />
            <mxPoint x="1070" y="980" as="targetPoint" />
            <Array as="points">
              <mxPoint x="1010" y="990" />
            </Array>
          </mxGeometry>
        </mxCell>
        <mxCell id="XTJKwg85AFcShDBnjpuE-271" value="" style="edgeStyle=orthogonalEdgeStyle;rounded=0;orthogonalLoop=1;jettySize=auto;html=1;" edge="1" parent="1" source="XTJKwg85AFcShDBnjpuE-185" target="XTJKwg85AFcShDBnjpuE-270">
          <mxGeometry relative="1" as="geometry" />
        </mxCell>
        <mxCell id="XTJKwg85AFcShDBnjpuE-185" value="&lt;font color=&quot;#ffffff&quot;&gt;ELABORACION DE REGISTROS&lt;/font&gt;" style="rounded=1;fillColor=#23445D;strokeColor=none;strokeWidth=2;fontFamily=Helvetica;html=1;gradientColor=none;" vertex="1" parent="1">
          <mxGeometry x="1100" y="955.5" width="200" height="50" as="geometry" />
        </mxCell>
        <mxCell id="83" value="" style="strokeColor=#FFFFFF;fillColor=#BAC8D3;fontSize=18;strokeWidth=2;fontFamily=Helvetica;html=1;opacity=90;" parent="1" vertex="1">
          <mxGeometry x="1537.3333333333333" y="1030.5" width="646.6666666666666" height="100" as="geometry" />
        </mxCell>
        <mxCell id="84" value="" style="strokeColor=#FFFFFF;fillColor=#BAC8D3;fontSize=18;strokeWidth=2;fontFamily=Helvetica;html=1;opacity=60;" parent="1" vertex="1">
          <mxGeometry x="1537.3333333333333" y="1130.5" width="646.6666666666666" height="100" as="geometry" />
        </mxCell>
        <mxCell id="85" value="" style="strokeColor=#FFFFFF;fillColor=#BAC8D3;fontSize=18;strokeWidth=2;fontFamily=Helvetica;html=1;opacity=90;" parent="1" vertex="1">
          <mxGeometry x="1537.3333333333333" y="1230.5" width="646.6666666666666" height="100" as="geometry" />
        </mxCell>
        <mxCell id="86" value="" style="strokeColor=#FFFFFF;fillColor=#BAC8D3;fontSize=18;strokeWidth=2;fontFamily=Helvetica;html=1;opacity=60;" parent="1" vertex="1">
          <mxGeometry x="1537.3333333333333" y="1330.5" width="646.6666666666666" height="100" as="geometry" />
        </mxCell>
        <mxCell id="121" value="" style="edgeStyle=elbowEdgeStyle;elbow=horizontal;strokeWidth=3;strokeColor=#0C343D;fontFamily=Helvetica;html=1;exitX=1;exitY=0.5;exitDx=0;exitDy=0;entryX=0;entryY=0.5;entryDx=0;entryDy=0;" parent="1" source="XTJKwg85AFcShDBnjpuE-186" target="XTJKwg85AFcShDBnjpuE-187" edge="1">
          <mxGeometry x="6.44897959183686" y="830.5" width="131.97278911564624" height="100" as="geometry">
            <mxPoint x="1916.9985034013607" y="980.5" as="sourcePoint" />
            <mxPoint x="2380.004965986395" y="980" as="targetPoint" />
          </mxGeometry>
        </mxCell>
        <mxCell id="XTJKwg85AFcShDBnjpuE-277" value="" style="edgeStyle=orthogonalEdgeStyle;rounded=0;orthogonalLoop=1;jettySize=auto;html=1;" edge="1" parent="1" source="XTJKwg85AFcShDBnjpuE-186" target="XTJKwg85AFcShDBnjpuE-276">
          <mxGeometry relative="1" as="geometry" />
        </mxCell>
        <mxCell id="XTJKwg85AFcShDBnjpuE-186" value="&lt;font color=&quot;#ffffff&quot;&gt;GENERACION DE EVIDENCIA&lt;/font&gt;" style="rounded=1;fillColor=#23445D;strokeColor=none;strokeWidth=2;fontFamily=Helvetica;html=1;gradientColor=none;" vertex="1" parent="1">
          <mxGeometry x="1760.83" y="955.5" width="200" height="50" as="geometry" />
        </mxCell>
        <mxCell id="141" value="COMERCIAL" style="strokeColor=#BAC8D3;fillColor=#FF0000;fontSize=19;strokeWidth=2;fontFamily=Helvetica;html=1;labelBackgroundColor=none;fontColor=#FFFFFF;" parent="1" vertex="1">
          <mxGeometry x="244" y="890.5" width="646.6656362699642" height="40" as="geometry" />
        </mxCell>
        <mxCell id="142" value="LABORATORIO" style="strokeColor=#BAC8D3;fillColor=#FF0000;fontSize=19;strokeWidth=2;fontFamily=Helvetica;html=1;labelBackgroundColor=none;fontColor=#FFFFFF;" parent="1" vertex="1">
          <mxGeometry x="890.6656362699642" y="890.5" width="646.6656362699642" height="40" as="geometry" />
        </mxCell>
        <mxCell id="143" value="CALIDAD" style="strokeColor=#BAC8D3;fillColor=#FF0000;fontSize=19;strokeWidth=2;fontFamily=Helvetica;html=1;labelBackgroundColor=none;fontColor=#FFFFFF;" parent="1" vertex="1">
          <mxGeometry x="1537.3312725399282" y="890.5" width="646.6666666666666" height="40" as="geometry" />
        </mxCell>
        <mxCell id="XTJKwg85AFcShDBnjpuE-232" value="INTERNO" style="strokeColor=#BAC8D3;fillColor=#FF0000;fontSize=19;strokeWidth=2;horizontal=0;fontFamily=Helvetica;html=1;labelBackgroundColor=none;fontColor=#FFFFFF;" vertex="1" parent="1">
          <mxGeometry x="204" y="1330.5" width="40" height="100" as="geometry" />
        </mxCell>
        <mxCell id="XTJKwg85AFcShDBnjpuE-238" value="INTERNO" style="strokeColor=#BAC8D3;fillColor=#FF0000;fontSize=19;strokeWidth=2;horizontal=0;fontFamily=Helvetica;html=1;labelBackgroundColor=none;fontColor=#FFFFFF;" vertex="1" parent="1">
          <mxGeometry x="204" y="1230.5" width="40" height="100" as="geometry" />
        </mxCell>
        <mxCell id="XTJKwg85AFcShDBnjpuE-241" value="&lt;ul&gt;&lt;li&gt;&lt;font color=&quot;#ffffff&quot;&gt;TELEFONICA&lt;/font&gt;&lt;/li&gt;&lt;li&gt;&lt;font color=&quot;#ffffff&quot;&gt;CORREO&lt;/font&gt;&lt;/li&gt;&lt;li&gt;&lt;font color=&quot;#ffffff&quot;&gt;WHATSAPP&lt;/font&gt;&lt;/li&gt;&lt;li&gt;&lt;font color=&quot;#ffffff&quot;&gt;PERSONA&lt;/font&gt;&lt;/li&gt;&lt;/ul&gt;" style="rounded=1;fillColor=#23445D;strokeColor=none;strokeWidth=2;fontFamily=Helvetica;html=1;gradientColor=none;align=left;" vertex="1" parent="1">
          <mxGeometry x="270.39" y="1048.25" width="127" height="64.5" as="geometry" />
        </mxCell>
        <mxCell id="XTJKwg85AFcShDBnjpuE-248" value="" style="edgeStyle=orthogonalEdgeStyle;rounded=0;orthogonalLoop=1;jettySize=auto;html=1;entryX=0.5;entryY=0;entryDx=0;entryDy=0;" edge="1" parent="1" source="XTJKwg85AFcShDBnjpuE-242" target="XTJKwg85AFcShDBnjpuE-244">
          <mxGeometry relative="1" as="geometry">
            <Array as="points">
              <mxPoint x="534" y="1140" />
              <mxPoint x="313" y="1140" />
            </Array>
          </mxGeometry>
        </mxCell>
        <mxCell id="XTJKwg85AFcShDBnjpuE-242" value="&lt;ul&gt;&lt;li&gt;&lt;font color=&quot;#ffffff&quot;&gt;ESPECIAL&lt;/font&gt;&lt;/li&gt;&lt;li&gt;&lt;font color=&quot;#ffffff&quot;&gt;FRECUENTE&lt;/font&gt;&lt;/li&gt;&lt;li&gt;&lt;font color=&quot;#ffffff&quot;&gt;NUEVO&lt;/font&gt;&lt;/li&gt;&lt;/ul&gt;" style="rounded=1;fillColor=#23445D;strokeColor=none;strokeWidth=2;fontFamily=Helvetica;html=1;gradientColor=none;align=left;" vertex="1" parent="1">
          <mxGeometry x="470.0045578231293" y="1055.5" width="127" height="50" as="geometry" />
        </mxCell>
        <mxCell id="XTJKwg85AFcShDBnjpuE-249" value="" style="edgeStyle=orthogonalEdgeStyle;rounded=0;orthogonalLoop=1;jettySize=auto;html=1;" edge="1" parent="1" source="XTJKwg85AFcShDBnjpuE-244" target="XTJKwg85AFcShDBnjpuE-247">
          <mxGeometry relative="1" as="geometry" />
        </mxCell>
        <mxCell id="XTJKwg85AFcShDBnjpuE-244" value="&lt;font color=&quot;#ffffff&quot;&gt;SOLICITUD DE&amp;nbsp;&lt;/font&gt;&lt;div&gt;&lt;font color=&quot;#ffffff&quot;&gt;INFORMACION&lt;/font&gt;&lt;/div&gt;" style="rounded=1;fillColor=#23445D;strokeColor=none;strokeWidth=2;fontFamily=Helvetica;html=1;gradientColor=none;" vertex="1" parent="1">
          <mxGeometry x="260" y="1165" width="106.5" height="40" as="geometry" />
        </mxCell>
        <mxCell id="XTJKwg85AFcShDBnjpuE-247" value="&lt;ul&gt;&lt;li&gt;&lt;font color=&quot;#ffffff&quot;&gt;CSF&lt;/font&gt;&lt;/li&gt;&lt;li&gt;&lt;font color=&quot;#ffffff&quot;&gt;INICIO DE OBRA&lt;/font&gt;&lt;/li&gt;&lt;li&gt;&lt;font color=&quot;#ffffff&quot;&gt;FECHAS DE TRABAJO&lt;/font&gt;&lt;/li&gt;&lt;/ul&gt;" style="rounded=1;fillColor=#23445D;strokeColor=none;strokeWidth=2;fontFamily=Helvetica;html=1;gradientColor=none;align=left;" vertex="1" parent="1">
          <mxGeometry x="400" y="1150" width="180" height="70" as="geometry" />
        </mxCell>
        <mxCell id="XTJKwg85AFcShDBnjpuE-253" value="" style="edgeStyle=orthogonalEdgeStyle;rounded=0;orthogonalLoop=1;jettySize=auto;html=1;entryX=0;entryY=0.5;entryDx=0;entryDy=0;exitX=0;exitY=0.5;exitDx=0;exitDy=0;" edge="1" parent="1" source="XTJKwg85AFcShDBnjpuE-250" target="XTJKwg85AFcShDBnjpuE-252">
          <mxGeometry relative="1" as="geometry">
            <Array as="points">
              <mxPoint x="673" y="1043" />
              <mxPoint x="673" y="1095" />
              <mxPoint x="680" y="1095" />
            </Array>
          </mxGeometry>
        </mxCell>
        <mxCell id="XTJKwg85AFcShDBnjpuE-250" value="&lt;font color=&quot;#ffffff&quot;&gt;PROGRAMACION DE TRABAJO&lt;/font&gt;" style="rounded=1;fillColor=#23445D;strokeColor=none;strokeWidth=2;fontFamily=Helvetica;html=1;gradientColor=none;align=left;" vertex="1" parent="1">
          <mxGeometry x="680" y="1031" width="180" height="24.5" as="geometry" />
        </mxCell>
        <mxCell id="XTJKwg85AFcShDBnjpuE-268" value="" style="edgeStyle=orthogonalEdgeStyle;rounded=0;orthogonalLoop=1;jettySize=auto;html=1;" edge="1" parent="1" source="XTJKwg85AFcShDBnjpuE-252" target="XTJKwg85AFcShDBnjpuE-256">
          <mxGeometry relative="1" as="geometry" />
        </mxCell>
        <mxCell id="XTJKwg85AFcShDBnjpuE-252" value="&lt;pre style=&quot;font-size: 8px;&quot;&gt;&lt;span style=&quot;color: rgb(255, 255, 255); background-color: initial;&quot;&gt;&lt;font style=&quot;font-size: 8px;&quot;&gt;&lt;br&gt;&lt;/font&gt;&lt;/span&gt;&lt;font style=&quot;font-size: 8px;&quot;&gt;&lt;span style=&quot;color: rgb(255, 255, 255); background-color: initial;&quot;&gt;VerificaciÃ³n de disponibilidad:&lt;/span&gt;&lt;/font&gt;&lt;ul style=&quot;&quot;&gt;&lt;li style=&quot;&quot;&gt;&lt;font style=&quot;font-size: 8px;&quot; color=&quot;#ffffff&quot;&gt;TÃ©cnica&lt;/font&gt;&lt;/li&gt;&lt;li style=&quot;&quot;&gt;&lt;font style=&quot;font-size: 8px;&quot; color=&quot;#ffffff&quot;&gt;Equipos&lt;/font&gt;&lt;/li&gt;&lt;/ul&gt;&lt;/pre&gt;" style="rounded=1;fillColor=#23445D;strokeColor=none;strokeWidth=2;fontFamily=Helvetica;html=1;gradientColor=none;align=left;" vertex="1" parent="1">
          <mxGeometry x="692.5" y="1070" width="155" height="49.5" as="geometry" />
        </mxCell>
        <mxCell id="XTJKwg85AFcShDBnjpuE-269" value="" style="edgeStyle=orthogonalEdgeStyle;rounded=0;orthogonalLoop=1;jettySize=auto;html=1;" edge="1" parent="1" source="XTJKwg85AFcShDBnjpuE-256" target="XTJKwg85AFcShDBnjpuE-258">
          <mxGeometry relative="1" as="geometry" />
        </mxCell>
        <mxCell id="XTJKwg85AFcShDBnjpuE-256" value="&lt;font color=&quot;#ffffff&quot;&gt;REALIZACION DE TRABAJO&lt;/font&gt;" style="rounded=1;fillColor=#23445D;strokeColor=none;strokeWidth=2;fontFamily=Helvetica;html=1;gradientColor=none;align=center;" vertex="1" parent="1">
          <mxGeometry x="680" y="1140.5" width="180" height="24.5" as="geometry" />
        </mxCell>
        <mxCell id="XTJKwg85AFcShDBnjpuE-258" value="&lt;pre style=&quot;font-size: 8px;&quot;&gt;&lt;ul&gt;&lt;li&gt;&lt;font color=&quot;#ffffff&quot;&gt;REPORTES DE CAMPO&lt;/font&gt;&lt;/li&gt;&lt;li&gt;&lt;font color=&quot;#ffffff&quot;&gt;GENERACION DE ETIQUETAS&lt;/font&gt;&lt;/li&gt;&lt;/ul&gt;&lt;/pre&gt;" style="rounded=1;fillColor=#23445D;strokeColor=none;strokeWidth=2;fontFamily=Helvetica;html=1;gradientColor=none;align=left;" vertex="1" parent="1">
          <mxGeometry x="686.5899999999999" y="1180" width="166.83" height="29.5" as="geometry" />
        </mxCell>
        <mxCell id="XTJKwg85AFcShDBnjpuE-273" value="" style="edgeStyle=orthogonalEdgeStyle;rounded=0;orthogonalLoop=1;jettySize=auto;html=1;" edge="1" parent="1" source="XTJKwg85AFcShDBnjpuE-270" target="XTJKwg85AFcShDBnjpuE-272">
          <mxGeometry relative="1" as="geometry" />
        </mxCell>
        <mxCell id="XTJKwg85AFcShDBnjpuE-270" value="&lt;font color=&quot;#ffffff&quot;&gt;RECEPCION DE:&lt;br&gt;&lt;ul&gt;&lt;li&gt;&lt;font color=&quot;#ffffff&quot;&gt;REPORTES DE CAMPO&lt;/font&gt;&lt;/li&gt;&lt;li&gt;&lt;font color=&quot;#ffffff&quot;&gt;ETIQUETAS&lt;/font&gt;&lt;/li&gt;&lt;/ul&gt;&lt;/font&gt;" style="rounded=1;fillColor=#23445D;strokeColor=none;strokeWidth=2;fontFamily=Helvetica;html=1;gradientColor=none;align=left;" vertex="1" parent="1">
          <mxGeometry x="1110" y="1040.5" width="180" height="69.5" as="geometry" />
        </mxCell>
        <mxCell id="XTJKwg85AFcShDBnjpuE-275" value="" style="edgeStyle=orthogonalEdgeStyle;rounded=0;orthogonalLoop=1;jettySize=auto;html=1;" edge="1" parent="1" source="XTJKwg85AFcShDBnjpuE-272" target="XTJKwg85AFcShDBnjpuE-274">
          <mxGeometry relative="1" as="geometry" />
        </mxCell>
        <mxCell id="XTJKwg85AFcShDBnjpuE-272" value="&lt;font color=&quot;#ffffff&quot;&gt;REALIZACION DE PRUEBAS&lt;/font&gt;" style="rounded=1;fillColor=#23445D;strokeColor=none;strokeWidth=2;fontFamily=Helvetica;html=1;gradientColor=none;align=center;" vertex="1" parent="1">
          <mxGeometry x="1110" y="1160" width="180" height="29.5" as="geometry" />
        </mxCell>
        <mxCell id="XTJKwg85AFcShDBnjpuE-274" value="&lt;font color=&quot;#ffffff&quot;&gt;REALIZACION DE REGISTROS&lt;/font&gt;" style="rounded=1;fillColor=#23445D;strokeColor=none;strokeWidth=2;fontFamily=Helvetica;html=1;gradientColor=none;align=center;" vertex="1" parent="1">
          <mxGeometry x="1110" y="1250" width="180" height="29.5" as="geometry" />
        </mxCell>
        <mxCell id="XTJKwg85AFcShDBnjpuE-280" value="" style="edgeStyle=orthogonalEdgeStyle;rounded=0;orthogonalLoop=1;jettySize=auto;html=1;" edge="1" parent="1" source="XTJKwg85AFcShDBnjpuE-276" target="XTJKwg85AFcShDBnjpuE-278">
          <mxGeometry relative="1" as="geometry" />
        </mxCell>
        <mxCell id="XTJKwg85AFcShDBnjpuE-276" value="&lt;font color=&quot;#ffffff&quot;&gt;RECEPCION DE REGISTROS&lt;/font&gt;" style="rounded=1;fillColor=#23445D;strokeColor=none;strokeWidth=2;fontFamily=Helvetica;html=1;gradientColor=none;align=left;" vertex="1" parent="1">
          <mxGeometry x="1770.66" y="1048.25" width="180" height="24" as="geometry" />
        </mxCell>
        <mxCell id="XTJKwg85AFcShDBnjpuE-282" value="" style="edgeStyle=orthogonalEdgeStyle;rounded=0;orthogonalLoop=1;jettySize=auto;html=1;" edge="1" parent="1" source="XTJKwg85AFcShDBnjpuE-278" target="XTJKwg85AFcShDBnjpuE-281">
          <mxGeometry relative="1" as="geometry" />
        </mxCell>
        <mxCell id="XTJKwg85AFcShDBnjpuE-278" value="&lt;font color=&quot;#ffffff&quot;&gt;SUPERVISION DE REGISTROS&lt;/font&gt;" style="rounded=1;fillColor=#23445D;strokeColor=none;strokeWidth=2;fontFamily=Helvetica;html=1;gradientColor=none;align=left;" vertex="1" parent="1">
          <mxGeometry x="1770.66" y="1088.75" width="180" height="24" as="geometry" />
        </mxCell>
        <mxCell id="XTJKwg85AFcShDBnjpuE-286" value="" style="edgeStyle=orthogonalEdgeStyle;rounded=0;orthogonalLoop=1;jettySize=auto;html=1;" edge="1" parent="1" source="XTJKwg85AFcShDBnjpuE-281" target="XTJKwg85AFcShDBnjpuE-283">
          <mxGeometry relative="1" as="geometry" />
        </mxCell>
        <mxCell id="XTJKwg85AFcShDBnjpuE-281" value="&lt;font color=&quot;#ffffff&quot;&gt;VERIFICACION DE FORMATOS&lt;/font&gt;" style="rounded=1;fillColor=#23445D;strokeColor=none;strokeWidth=2;fontFamily=Helvetica;html=1;gradientColor=none;align=left;" vertex="1" parent="1">
          <mxGeometry x="1770.66" y="1141" width="180" height="24" as="geometry" />
        </mxCell>
        <mxCell id="XTJKwg85AFcShDBnjpuE-292" value="" style="edgeStyle=orthogonalEdgeStyle;rounded=0;orthogonalLoop=1;jettySize=auto;html=1;" edge="1" parent="1" source="XTJKwg85AFcShDBnjpuE-283" target="XTJKwg85AFcShDBnjpuE-287">
          <mxGeometry relative="1" as="geometry" />
        </mxCell>
        <mxCell id="XTJKwg85AFcShDBnjpuE-283" value="&lt;font color=&quot;#ffffff&quot;&gt;VERIFICACION DE FORMATOS&lt;/font&gt;" style="rounded=1;fillColor=#23445D;strokeColor=none;strokeWidth=2;fontFamily=Helvetica;html=1;gradientColor=none;align=left;" vertex="1" parent="1">
          <mxGeometry x="1770.66" y="1189.5" width="180" height="24" as="geometry" />
        </mxCell>
        <mxCell id="XTJKwg85AFcShDBnjpuE-287" value="&lt;font color=&quot;#ffffff&quot;&gt;VALIDACION DE EVIDENCIAS CON FINANZAS&lt;/font&gt;" style="rounded=1;fillColor=#23445D;strokeColor=none;strokeWidth=2;fontFamily=Helvetica;html=1;gradientColor=none;align=left;" vertex="1" parent="1">
          <mxGeometry x="1720.83" y="1268.25" width="280" height="24" as="geometry" />
        </mxCell>
        <mxCell id="XTJKwg85AFcShDBnjpuE-152" value="" style="strokeColor=#FFFFFF;fillColor=#BAC8D3;fontSize=18;strokeWidth=2;fontFamily=Helvetica;html=1;opacity=60;" vertex="1" parent="1">
          <mxGeometry x="2184.333333333333" y="930.5" width="647" height="100" as="geometry" />
        </mxCell>
        <mxCell id="XTJKwg85AFcShDBnjpuE-153" value="" style="strokeColor=#FFFFFF;fillColor=#BAC8D3;fontSize=18;strokeWidth=2;fontFamily=Helvetica;html=1;opacity=90;" vertex="1" parent="1">
          <mxGeometry x="2184.333333333333" y="1030.5" width="646.6666666666666" height="100" as="geometry" />
        </mxCell>
        <mxCell id="XTJKwg85AFcShDBnjpuE-154" value="" style="strokeColor=#FFFFFF;fillColor=#BAC8D3;fontSize=18;strokeWidth=2;fontFamily=Helvetica;html=1;opacity=60;" vertex="1" parent="1">
          <mxGeometry x="2184.333333333333" y="1130.5" width="646.6666666666666" height="100" as="geometry" />
        </mxCell>
        <mxCell id="XTJKwg85AFcShDBnjpuE-155" value="" style="strokeColor=#FFFFFF;fillColor=#BAC8D3;fontSize=18;strokeWidth=2;fontFamily=Helvetica;html=1;opacity=90;" vertex="1" parent="1">
          <mxGeometry x="2184.333333333333" y="1230.5" width="646.6666666666666" height="100" as="geometry" />
        </mxCell>
        <mxCell id="XTJKwg85AFcShDBnjpuE-156" value="" style="strokeColor=#FFFFFF;fillColor=#BAC8D3;fontSize=18;strokeWidth=2;fontFamily=Helvetica;html=1;opacity=60;" vertex="1" parent="1">
          <mxGeometry x="2184.333333333333" y="1330.5" width="646.6666666666666" height="100" as="geometry" />
        </mxCell>
        <mxCell id="XTJKwg85AFcShDBnjpuE-159" value="" style="strokeColor=#FFFFFF;fillColor=#BAC8D3;fontSize=18;strokeWidth=2;fontFamily=Helvetica;html=1;opacity=60;" vertex="1" parent="1">
          <mxGeometry x="2831.333333333333" y="930" width="647" height="100" as="geometry" />
        </mxCell>
        <mxCell id="XTJKwg85AFcShDBnjpuE-160" value="" style="strokeColor=#FFFFFF;fillColor=#BAC8D3;fontSize=18;strokeWidth=2;fontFamily=Helvetica;html=1;opacity=90;" vertex="1" parent="1">
          <mxGeometry x="2831.333333333333" y="1030" width="646.6666666666666" height="100" as="geometry" />
        </mxCell>
        <mxCell id="XTJKwg85AFcShDBnjpuE-161" value="" style="strokeColor=#FFFFFF;fillColor=#BAC8D3;fontSize=18;strokeWidth=2;fontFamily=Helvetica;html=1;opacity=60;" vertex="1" parent="1">
          <mxGeometry x="2831.333333333333" y="1130" width="646.6666666666666" height="100" as="geometry" />
        </mxCell>
        <mxCell id="XTJKwg85AFcShDBnjpuE-162" value="" style="strokeColor=#FFFFFF;fillColor=#BAC8D3;fontSize=18;strokeWidth=2;fontFamily=Helvetica;html=1;opacity=90;" vertex="1" parent="1">
          <mxGeometry x="2831.333333333333" y="1230" width="646.6666666666666" height="100" as="geometry" />
        </mxCell>
        <mxCell id="XTJKwg85AFcShDBnjpuE-163" value="" style="strokeColor=#FFFFFF;fillColor=#BAC8D3;fontSize=18;strokeWidth=2;fontFamily=Helvetica;html=1;opacity=60;" vertex="1" parent="1">
          <mxGeometry x="2831.333333333333" y="1330" width="646.6666666666666" height="100" as="geometry" />
        </mxCell>
        <mxCell id="XTJKwg85AFcShDBnjpuE-166" value="" style="strokeColor=#FFFFFF;fillColor=#BAC8D3;fontSize=18;strokeWidth=2;fontFamily=Helvetica;html=1;opacity=60;" vertex="1" parent="1">
          <mxGeometry x="3478.333333333333" y="930.5" width="647" height="100" as="geometry" />
        </mxCell>
        <mxCell id="XTJKwg85AFcShDBnjpuE-167" value="" style="strokeColor=#FFFFFF;fillColor=#BAC8D3;fontSize=18;strokeWidth=2;fontFamily=Helvetica;html=1;opacity=90;" vertex="1" parent="1">
          <mxGeometry x="3478.333333333333" y="1030.5" width="646.6666666666666" height="100" as="geometry" />
        </mxCell>
        <mxCell id="XTJKwg85AFcShDBnjpuE-168" value="" style="strokeColor=#FFFFFF;fillColor=#BAC8D3;fontSize=18;strokeWidth=2;fontFamily=Helvetica;html=1;opacity=60;" vertex="1" parent="1">
          <mxGeometry x="3478.333333333333" y="1130.5" width="646.6666666666666" height="100" as="geometry" />
        </mxCell>
        <mxCell id="XTJKwg85AFcShDBnjpuE-169" value="" style="strokeColor=#FFFFFF;fillColor=#BAC8D3;fontSize=18;strokeWidth=2;fontFamily=Helvetica;html=1;opacity=90;" vertex="1" parent="1">
          <mxGeometry x="3478.333333333333" y="1230.5" width="646.6666666666666" height="100" as="geometry" />
        </mxCell>
        <mxCell id="XTJKwg85AFcShDBnjpuE-170" value="" style="strokeColor=#FFFFFF;fillColor=#BAC8D3;fontSize=18;strokeWidth=2;fontFamily=Helvetica;html=1;opacity=60;" vertex="1" parent="1">
          <mxGeometry x="3478.333333333333" y="1330.5" width="646.6666666666666" height="100" as="geometry" />
        </mxCell>
        <mxCell id="XTJKwg85AFcShDBnjpuE-289" value="" style="edgeStyle=orthogonalEdgeStyle;rounded=0;orthogonalLoop=1;jettySize=auto;html=1;" edge="1" parent="1" source="XTJKwg85AFcShDBnjpuE-187" target="XTJKwg85AFcShDBnjpuE-288">
          <mxGeometry relative="1" as="geometry" />
        </mxCell>
        <mxCell id="XTJKwg85AFcShDBnjpuE-187" value="&lt;font color=&quot;#ffffff&quot;&gt;SITUACION DEL PAGO/S&lt;/font&gt;" style="rounded=1;fillColor=#23445D;strokeColor=none;strokeWidth=2;fontFamily=Helvetica;html=1;gradientColor=none;" vertex="1" parent="1">
          <mxGeometry x="2407.67" y="955" width="200" height="50" as="geometry" />
        </mxCell>
        <mxCell id="XTJKwg85AFcShDBnjpuE-188" value="" style="edgeStyle=elbowEdgeStyle;elbow=horizontal;strokeWidth=3;strokeColor=#0C343D;fontFamily=Helvetica;html=1;exitX=1;exitY=0.5;exitDx=0;exitDy=0;entryX=0;entryY=0.5;entryDx=0;entryDy=0;" edge="1" parent="1" source="XTJKwg85AFcShDBnjpuE-187" target="XTJKwg85AFcShDBnjpuE-189">
          <mxGeometry x="-1530.8843537414964" y="-99.5" width="131.97278911564624" height="100" as="geometry">
            <mxPoint x="2630.003333333333" y="980.25" as="sourcePoint" />
            <mxPoint x="3000" y="979" as="targetPoint" />
          </mxGeometry>
        </mxCell>
        <mxCell id="XTJKwg85AFcShDBnjpuE-300" value="" style="edgeStyle=orthogonalEdgeStyle;rounded=0;orthogonalLoop=1;jettySize=auto;html=1;" edge="1" parent="1" source="XTJKwg85AFcShDBnjpuE-189" target="XTJKwg85AFcShDBnjpuE-298">
          <mxGeometry relative="1" as="geometry" />
        </mxCell>
        <mxCell id="XTJKwg85AFcShDBnjpuE-189" value="&lt;font color=&quot;#ffffff&quot;&gt;ENVIAR EVIDENCIA&lt;/font&gt;" style="rounded=1;fillColor=#23445D;strokeColor=none;strokeWidth=2;fontFamily=Helvetica;html=1;gradientColor=none;" vertex="1" parent="1">
          <mxGeometry x="3020" y="955.5" width="200" height="50" as="geometry" />
        </mxCell>
        <mxCell id="XTJKwg85AFcShDBnjpuE-306" value="" style="edgeStyle=orthogonalEdgeStyle;rounded=0;orthogonalLoop=1;jettySize=auto;html=1;" edge="1" parent="1" source="XTJKwg85AFcShDBnjpuE-215" target="XTJKwg85AFcShDBnjpuE-305">
          <mxGeometry relative="1" as="geometry" />
        </mxCell>
        <mxCell id="XTJKwg85AFcShDBnjpuE-215" value="&lt;font color=&quot;#ffffff&quot;&gt;CONFIRMACION DE RECIBIDO&lt;/font&gt;" style="rounded=1;fillColor=#23445D;strokeColor=none;strokeWidth=2;fontFamily=Helvetica;html=1;gradientColor=none;" vertex="1" parent="1">
          <mxGeometry x="3701.83" y="955.5" width="200" height="50" as="geometry" />
        </mxCell>
        <mxCell id="XTJKwg85AFcShDBnjpuE-216" value="" style="edgeStyle=elbowEdgeStyle;elbow=horizontal;strokeWidth=3;strokeColor=#0C343D;fontFamily=Helvetica;html=1;entryX=0;entryY=0.5;entryDx=0;entryDy=0;exitX=1;exitY=0.5;exitDx=0;exitDy=0;" edge="1" parent="1" source="XTJKwg85AFcShDBnjpuE-189" target="XTJKwg85AFcShDBnjpuE-215">
          <mxGeometry x="-3715.217687074829" y="-1029.5" width="131.97278911564624" height="100" as="geometry">
            <mxPoint x="3260.003333333333" y="979.91" as="sourcePoint" />
            <mxPoint x="3673.003333333333" y="980.91" as="targetPoint" />
          </mxGeometry>
        </mxCell>
        <mxCell id="XTJKwg85AFcShDBnjpuE-291" value="" style="edgeStyle=orthogonalEdgeStyle;rounded=0;orthogonalLoop=1;jettySize=auto;html=1;" edge="1" parent="1" source="XTJKwg85AFcShDBnjpuE-288" target="XTJKwg85AFcShDBnjpuE-290">
          <mxGeometry relative="1" as="geometry" />
        </mxCell>
        <mxCell id="XTJKwg85AFcShDBnjpuE-288" value="&lt;font color=&quot;#ffffff&quot;&gt;COTIZACION (RECEPCION)&lt;/font&gt;" style="rounded=1;fillColor=#23445D;strokeColor=none;strokeWidth=2;fontFamily=Helvetica;html=1;gradientColor=none;align=center;" vertex="1" parent="1">
          <mxGeometry x="2367.83" y="1050" width="280" height="24" as="geometry" />
        </mxCell>
        <mxCell id="XTJKwg85AFcShDBnjpuE-295" value="" style="edgeStyle=orthogonalEdgeStyle;rounded=0;orthogonalLoop=1;jettySize=auto;html=1;" edge="1" parent="1" source="XTJKwg85AFcShDBnjpuE-290" target="XTJKwg85AFcShDBnjpuE-293">
          <mxGeometry relative="1" as="geometry" />
        </mxCell>
        <mxCell id="XTJKwg85AFcShDBnjpuE-290" value="&lt;font color=&quot;#ffffff&quot;&gt;ELABORACION DE FACTURA&lt;/font&gt;" style="rounded=1;fillColor=#23445D;strokeColor=none;strokeWidth=2;fontFamily=Helvetica;html=1;gradientColor=none;align=center;" vertex="1" parent="1">
          <mxGeometry x="2367.83" y="1100" width="280" height="24" as="geometry" />
        </mxCell>
        <mxCell id="XTJKwg85AFcShDBnjpuE-297" value="" style="edgeStyle=orthogonalEdgeStyle;rounded=0;orthogonalLoop=1;jettySize=auto;html=1;" edge="1" parent="1" source="XTJKwg85AFcShDBnjpuE-293" target="XTJKwg85AFcShDBnjpuE-296">
          <mxGeometry relative="1" as="geometry" />
        </mxCell>
        <mxCell id="XTJKwg85AFcShDBnjpuE-293" value="&lt;font color=&quot;#ffffff&quot;&gt;RECEPCION DE PAGO&lt;/font&gt;" style="rounded=1;fillColor=#23445D;strokeColor=none;strokeWidth=2;fontFamily=Helvetica;html=1;gradientColor=none;align=center;" vertex="1" parent="1">
          <mxGeometry x="2367.83" y="1180" width="280" height="24" as="geometry" />
        </mxCell>
        <mxCell id="XTJKwg85AFcShDBnjpuE-296" value="&lt;font color=&quot;#ffffff&quot;&gt;INFORMACION AL DEPARTAMENTO DE CALIDAD PARA LIBERACIÃ“N&amp;nbsp;&lt;/font&gt;" style="rounded=1;fillColor=#23445D;strokeColor=none;strokeWidth=2;fontFamily=Helvetica;html=1;gradientColor=none;align=center;" vertex="1" parent="1">
          <mxGeometry x="2277.833333333333" y="1368.5" width="460" height="24" as="geometry" />
        </mxCell>
        <mxCell id="XTJKwg85AFcShDBnjpuE-303" value="" style="edgeStyle=orthogonalEdgeStyle;rounded=0;orthogonalLoop=1;jettySize=auto;html=1;" edge="1" parent="1" source="XTJKwg85AFcShDBnjpuE-298" target="XTJKwg85AFcShDBnjpuE-302">
          <mxGeometry relative="1" as="geometry" />
        </mxCell>
        <mxCell id="XTJKwg85AFcShDBnjpuE-298" value="&lt;font color=&quot;#ffffff&quot;&gt;VALIDACION AUTORIZADA PARA LIBERACION&lt;/font&gt;" style="rounded=1;fillColor=#23445D;strokeColor=none;strokeWidth=2;fontFamily=Helvetica;html=1;gradientColor=none;align=left;" vertex="1" parent="1">
          <mxGeometry x="2980" y="1060" width="280" height="24" as="geometry" />
        </mxCell>
        <mxCell id="XTJKwg85AFcShDBnjpuE-302" value="&lt;font color=&quot;#ffffff&quot;&gt;ENVIO DE EVIDENCIAS (INFORME)&amp;nbsp; AL CLIENTE&lt;/font&gt;" style="rounded=1;fillColor=#23445D;strokeColor=none;strokeWidth=2;fontFamily=Helvetica;html=1;gradientColor=none;align=left;" vertex="1" parent="1">
          <mxGeometry x="2962.833333333333" y="1156" width="314.33" height="24" as="geometry" />
        </mxCell>
        <mxCell id="XTJKwg85AFcShDBnjpuE-305" value="&lt;font color=&quot;#ffffff&quot;&gt;CONFIRMACION MEDIANTE:&lt;br&gt;&lt;ul&gt;&lt;li&gt;&lt;font color=&quot;#ffffff&quot;&gt;LLAMADA&lt;/font&gt;&lt;/li&gt;&lt;li&gt;&lt;font color=&quot;#ffffff&quot;&gt;CORREO&lt;/font&gt;&lt;/li&gt;&lt;li&gt;&lt;font color=&quot;#ffffff&quot;&gt;EN PERSONA&lt;/font&gt;&lt;/li&gt;&lt;/ul&gt;&lt;/font&gt;" style="rounded=1;fillColor=#23445D;strokeColor=none;strokeWidth=2;fontFamily=Helvetica;html=1;gradientColor=none;align=left;" vertex="1" parent="1">
          <mxGeometry x="3689.663333333333" y="1034" width="224.33" height="90" as="geometry" />
        </mxCell>
        <mxCell id="XTJKwg85AFcShDBnjpuE-307" value="FIN" style="strokeColor=#BAC8D3;fillColor=#FF0000;fontSize=19;strokeWidth=2;horizontal=0;fontFamily=Helvetica;html=1;labelBackgroundColor=none;fontColor=#FFFFFF;" vertex="1" parent="1">
          <mxGeometry x="4125.33" y="930" width="40" height="100" as="geometry" />
        </mxCell>
        <mxCell id="XTJKwg85AFcShDBnjpuE-321" value="Procesos" style="strokeColor=#BAC8D3;fillColor=#000000;fontSize=24;strokeWidth=2;horizontal=0;fontFamily=Helvetica;html=1;fontColor=#FFFFFF;fontStyle=0" vertex="1" parent="1">
          <mxGeometry x="4165.33" y="931" width="50" height="499.5" as="geometry" />
        </mxCell>
        <mxCell id="XTJKwg85AFcShDBnjpuE-322" value="v 1.0" style="strokeColor=#BAC8D3;fillColor=#FF0000;fontSize=19;strokeWidth=2;fontFamily=Helvetica;html=1;labelBackgroundColor=none;fontColor=#FFFFFF;" vertex="1" parent="1">
          <mxGeometry x="4120" y="840" width="100" height="90" as="geometry" />
        </mxCell>
        <mxCell id="XTJKwg85AFcShDBnjpuE-323" value="INTERNO" style="strokeColor=#BAC8D3;fillColor=#FF0000;fontSize=19;strokeWidth=2;horizontal=0;fontFamily=Helvetica;html=1;labelBackgroundColor=none;fontColor=#FFFFFF;" vertex="1" parent="1">
          <mxGeometry x="4125" y="1031" width="40" height="100" as="geometry" />
        </mxCell>
        <mxCell id="XTJKwg85AFcShDBnjpuE-324" value="INTERNO" style="strokeColor=#BAC8D3;fillColor=#FF0000;fontSize=19;strokeWidth=2;horizontal=0;fontFamily=Helvetica;html=1;labelBackgroundColor=none;fontColor=#FFFFFF;" vertex="1" parent="1">
          <mxGeometry x="4125" y="1130" width="40" height="100" as="geometry" />
        </mxCell>
        <mxCell id="XTJKwg85AFcShDBnjpuE-325" value="INTERNO" style="strokeColor=#BAC8D3;fillColor=#FF0000;fontSize=19;strokeWidth=2;horizontal=0;fontFamily=Helvetica;html=1;labelBackgroundColor=none;fontColor=#FFFFFF;" vertex="1" parent="1">
          <mxGeometry x="4125.33" y="1330" width="40" height="100" as="geometry" />
        </mxCell>
        <mxCell id="XTJKwg85AFcShDBnjpuE-326" value="INTERNO" style="strokeColor=#BAC8D3;fillColor=#FF0000;fontSize=19;strokeWidth=2;horizontal=0;fontFamily=Helvetica;html=1;labelBackgroundColor=none;fontColor=#FFFFFF;" vertex="1" parent="1">
          <mxGeometry x="4125.33" y="1230" width="40" height="100" as="geometry" />
        </mxCell>
      </root>
    </mxGraphModel>
  </diagram>
</mxfile>
